<svg width="330" height="330" viewBox="0 0 330 330" fill="none" xmlns="http://www.w3.org/2000/svg">
<g clip-path="url(#clip0_93_45)">
<path d="M56.6583 28.3594C42.4081 28.3594 30.9375 39.8602 30.9375 54.1406V275.94C30.9375 290.23 42.4081 301.721 56.6583 301.721H273.332C287.592 301.721 299.062 290.23 299.062 275.94V90.0934C299.062 73.0032 285.245 59.1559 268.195 59.1559H149.531C143.207 59.1559 137.426 55.5808 134.586 49.921L130.709 42.2067C126.439 33.717 117.768 28.3594 108.281 28.3594H56.6583Z" fill="url(#paint0_linear_93_45)"/>
<path d="M205.987 8C195.882 8 185.78 11.8451 178.148 19.5139L112.448 85.532C97.1841 100.869 97.1841 126.141 112.448 141.479L178.148 207.497C193.412 222.834 218.562 222.834 233.826 207.497L299.552 141.479C314.816 126.141 314.816 100.869 299.552 85.532L233.826 19.5139C226.194 11.8451 216.092 8 205.987 8ZM207.32 34.2218C210.083 34.5172 212.759 35.7715 215.01 37.931L210.576 39.3992C209.588 37.6073 208.49 35.8859 207.32 34.2218ZM186.736 48.1827C190.673 53.7274 192.836 60.4272 192.837 67.3468C192.837 85.5558 178.146 100.317 160.025 100.317C153.158 100.264 146.536 98.0628 141.056 94.0837L186.736 48.1827ZM231.878 54.8541L280.967 104.181C286.269 109.509 286.269 117.502 280.967 122.83L277.661 126.153C277.16 125.518 276.666 124.869 276.122 124.272L284.249 113.016L273.636 105.263L265.51 116.493C263.304 115.478 260.943 114.679 258.512 114.175V100.317H245.387V114.175H245.361C242.93 114.679 240.595 115.478 238.389 116.493L230.263 105.263L219.65 113.016L227.776 124.272C226.125 126.085 224.665 128.076 223.444 130.222L210.294 125.947L206.244 138.491L219.368 142.767C219.229 143.988 219.138 145.219 219.138 146.476C219.138 147.733 219.229 148.964 219.368 150.185L206.244 154.461L210.294 167.005L223.444 162.729C224.665 164.876 226.125 166.866 227.776 168.679L219.65 179.936L222.239 181.842L215.267 188.848C209.965 194.175 202.01 194.176 196.708 188.848L132.34 124.169L132.725 123.628L135.467 119.816C139.78 121.869 144.399 123.397 149.207 124.324V129.012V139.882H170.843V129.012V124.324C175.651 123.397 180.271 121.869 184.583 119.816L187.325 123.628L193.683 132.438L211.191 119.636L204.859 110.827L202.065 106.989C205.358 103.466 208.23 99.5504 210.576 95.2943L215.036 96.7626L225.341 100.111L232.006 79.4273L221.727 76.053L217.292 74.6106C217.59 72.2339 217.779 69.8013 217.779 67.3468C217.779 64.8922 217.589 62.4596 217.292 60.083L221.727 58.6405L232.006 55.2662L231.878 54.8541ZM251.949 126.694C258.845 126.694 264.843 130.179 268.355 135.503L241.029 162.961C235.731 159.432 232.262 153.405 232.262 146.476C232.262 135.472 240.999 126.694 251.949 126.694Z" fill="#D3E7FF"/>
<g filter="url(#filter0_d_93_45)">
<path d="M91.9883 73C85.3536 73 79.975 78.1488 79.975 84.5V87.2297C79.975 92.6069 75.4454 97.6274 70.102 99.2709C69.8497 99.3514 69.5993 99.4274 69.3482 99.5067C64.0242 101.207 57.2832 99.706 53.9811 95.3557L52.2881 93.125C50.4171 90.6561 47.598 88.9997 44.4512 88.5205C41.3062 88.041 38.0907 88.7759 35.5116 90.5645C30.1258 94.2936 28.9272 101.501 32.8368 106.646L34.5592 108.919C37.8583 113.27 37.2778 119.883 33.9528 124.212C33.8062 124.403 33.6592 124.595 33.5151 124.788C30.236 129.148 23.8369 131.715 18.494 130.056L15.7327 129.198C9.42867 127.236 2.65621 130.533 0.598693 136.565C-1.46591 142.607 1.98125 149.106 8.29472 151.075L11.0077 151.915C16.3517 153.572 19.8746 159.245 19.9817 164.613C19.9869 164.874 19.9931 165.133 20.0052 165.393C20.1698 170.755 16.3582 176.435 11.0172 178.1L8.29912 178.948C1.99778 180.917 -1.44626 187.401 0.603092 193.436C2.65064 199.476 9.42634 202.784 15.7371 200.824L18.5035 199.96C23.8435 198.291 30.2425 200.85 33.5268 205.207C33.6745 205.404 33.8239 205.598 33.9741 205.794C37.3056 210.118 37.8856 216.729 34.5841 221.079L32.8419 223.376C28.9483 228.518 30.1457 235.708 35.5168 239.436C40.882 243.168 48.3916 242.031 52.2932 236.897L54.0068 234.642C57.3107 230.293 64.0535 228.791 69.3797 230.485C69.6212 230.565 69.863 230.638 70.1056 230.712C75.4504 232.351 79.9794 237.371 79.9794 242.748V245.5C79.9794 251.851 85.358 257 91.9927 257C98.6274 257 104.006 251.851 104.006 245.5V242.748C104.006 237.371 108.535 232.348 113.879 230.705C114.131 230.625 114.382 230.549 114.632 230.47C119.956 228.771 126.694 230.273 129.993 234.625L131.716 236.898C135.618 242.032 143.127 243.168 148.492 239.436C153.855 235.701 155.043 228.513 151.144 223.377L149.401 221.079C146.1 216.729 146.681 210.118 150.013 205.794C150.163 205.6 150.312 205.404 150.459 205.209C153.744 200.852 160.144 198.291 165.485 199.956L168.273 200.826C174.584 202.786 181.36 199.477 183.407 193.436C185.455 187.395 181.998 180.909 175.688 178.949L172.948 178.095C167.606 176.433 164.104 170.757 163.995 165.39C163.99 165.127 163.983 164.866 163.971 164.604C163.802 159.242 167.605 153.574 172.95 151.92L175.684 151.074C182.007 149.114 185.466 142.612 183.404 136.564C181.346 130.532 174.574 127.235 168.27 129.197L165.508 130.054C160.165 131.714 153.765 129.147 150.48 124.791C150.332 124.595 150.183 124.4 150.033 124.205C146.701 119.881 146.12 113.269 149.418 108.917L151.141 106.645C155.055 101.505 153.867 94.2992 148.489 90.563C145.91 88.7743 142.695 88.0391 139.55 88.5191C136.403 88.9987 133.584 90.6547 131.713 93.1236L129.999 95.3795C126.695 99.7284 119.953 101.229 114.628 99.5292C114.377 99.4487 114.126 99.3711 113.874 99.294C108.53 97.6523 104.002 92.6293 104.002 87.2522V84.5C104.002 78.1488 98.623 73 91.9883 73ZM91.9883 119C102.463 119 112.114 122.16 119.98 127.535C120.064 127.616 120.151 127.701 120.238 127.782C120.358 127.84 120.473 127.904 120.59 127.962C128.533 133.573 134.558 141.482 137.672 150.692C137.679 150.727 137.684 150.75 137.696 150.784C137.708 150.819 137.732 150.842 137.744 150.876C141.257 160.697 139.622 169.941 137.744 179.132C137.732 179.167 137.708 179.19 137.696 179.224C137.688 179.247 137.684 179.271 137.672 179.294C134.571 188.478 128.59 196.391 120.684 202.002C120.534 202.071 120.385 202.148 120.238 202.225C120.154 202.306 120.066 202.389 119.98 202.473C112.114 207.84 102.463 211 91.9883 211C81.7212 211 72.2451 207.962 64.4656 202.779C64.2313 202.583 63.9888 202.397 63.739 202.218C63.5996 202.138 63.4589 202.065 63.3159 201.994C55.4999 196.451 49.5344 188.669 46.3987 179.623C46.3627 179.487 46.3265 179.352 46.2785 179.218C46.2424 179.149 46.2063 179.082 46.1582 179.016C42.7348 169.284 44.3402 160.088 46.1582 150.984C46.1942 150.915 46.2424 150.849 46.2785 150.782C46.3265 150.632 46.3627 150.483 46.3987 150.332C49.5466 141.274 55.546 133.5 63.3863 127.961C63.5064 127.904 63.6217 127.842 63.7382 127.782C63.9881 127.603 64.2306 127.416 64.4649 127.221C72.2448 122.038 81.7212 119 91.9883 119Z" fill="#D3E7FF"/>
</g>
<g filter="url(#filter1_dii_93_45)">
<path d="M201.143 90.7103C193.998 90.7103 187.154 93.4819 181.836 97.9833C175.123 103.654 166.023 110.839 157.566 110.839H83.8252C69.4429 110.839 56.2885 122.063 54.3299 135.999L34.5361 276.839C32.5774 290.776 42.577 302 56.9593 302H275.641C290.034 302 303.188 290.776 305.147 276.839L327.769 115.871C329.728 101.934 319.729 90.7103 305.336 90.7103H201.143Z" fill="url(#paint1_linear_93_45)"/>
</g>
</g>
<defs>
<filter id="filter0_d_93_45" x="0" y="60.1" width="244.9" height="231.8" filterUnits="userSpaceOnUse" color-interpolation-filters="sRGB">
<feFlood flood-opacity="0" result="BackgroundImageFix"/>
<feColorMatrix in="SourceAlpha" type="matrix" values="0 0 0 0 0 0 0 0 0 0 0 0 0 0 0 0 0 0 127 0" result="hardAlpha"/>
<feOffset dx="37" dy="11"/>
<feGaussianBlur stdDeviation="11.95"/>
<feComposite in2="hardAlpha" operator="out"/>
<feColorMatrix type="matrix" values="0 0 0 0 0 0 0 0 0 0.200962 0 0 0 0 0.634615 0 0 0 0.57 0"/>
<feBlend mode="normal" in2="BackgroundImageFix" result="effect1_dropShadow_93_45"/>
<feBlend mode="normal" in="SourceGraphic" in2="effect1_dropShadow_93_45" result="shape"/>
</filter>
<filter id="filter1_dii_93_45" x="14.7911" y="62.2103" width="324.723" height="242.29" filterUnits="userSpaceOnUse" color-interpolation-filters="sRGB">
<feFlood flood-opacity="0" result="BackgroundImageFix"/>
<feColorMatrix in="SourceAlpha" type="matrix" values="0 0 0 0 0 0 0 0 0 0 0 0 0 0 0 0 0 0 127 0" result="hardAlpha"/>
<feOffset dx="-4" dy="-13"/>
<feGaussianBlur stdDeviation="7.75"/>
<feComposite in2="hardAlpha" operator="out"/>
<feColorMatrix type="matrix" values="0 0 0 0 0 0 0 0 0 0.21875 0 0 0 0 0.625 0 0 0 0.08 0"/>
<feBlend mode="normal" in2="BackgroundImageFix" result="effect1_dropShadow_93_45"/>
<feBlend mode="normal" in="SourceGraphic" in2="effect1_dropShadow_93_45" result="shape"/>
<feColorMatrix in="SourceAlpha" type="matrix" values="0 0 0 0 0 0 0 0 0 0 0 0 0 0 0 0 0 0 127 0" result="hardAlpha"/>
<feOffset dx="2" dy="2"/>
<feGaussianBlur stdDeviation="1"/>
<feComposite in2="hardAlpha" operator="arithmetic" k2="-1" k3="1"/>
<feColorMatrix type="matrix" values="0 0 0 0 0.706731 0 0 0 0 0.839872 0 0 0 0 1 0 0 0 1 0"/>
<feBlend mode="normal" in2="shape" result="effect2_innerShadow_93_45"/>
<feColorMatrix in="SourceAlpha" type="matrix" values="0 0 0 0 0 0 0 0 0 0 0 0 0 0 0 0 0 0 127 0" result="hardAlpha"/>
<feOffset dx="-1" dy="-2"/>
<feGaussianBlur stdDeviation="2"/>
<feComposite in2="hardAlpha" operator="arithmetic" k2="-1" k3="1"/>
<feColorMatrix type="matrix" values="0 0 0 0 0.686275 0 0 0 0 0.831373 0 0 0 0 1 0 0 0 1 0"/>
<feBlend mode="normal" in2="effect2_innerShadow_93_45" result="effect3_innerShadow_93_45"/>
</filter>
<linearGradient id="paint0_linear_93_45" x1="165" y1="59.2969" x2="158.555" y2="250.078" gradientUnits="userSpaceOnUse">
<stop stop-color="#438DE6"/>
<stop offset="0.5625" stop-color="#236BC3"/>
<stop offset="1" stop-color="#024AA0"/>
</linearGradient>
<linearGradient id="paint1_linear_93_45" x1="242.048" y1="97.0745" x2="305.116" y2="292.058" gradientUnits="userSpaceOnUse">
<stop stop-color="#97C9FF"/>
<stop offset="0.634615" stop-color="#69ADFF"/>
<stop offset="1" stop-color="#438DE6"/>
</linearGradient>
<clipPath id="clip0_93_45">
<rect width="330" height="330" fill="white"/>
</clipPath>
</defs>
</svg>
